<svg width="30" height="30" viewBox="0 0 30 30" fill="none" xmlns="http://www.w3.org/2000/svg">
<g clip-path="url(#clip0_430_877)">
<path d="M19.9514 20.5808L18.0793 20.7101V29.5512L18.0798 29.5511C18.0854 29.67 18.1604 29.7828 18.3078 29.8679C18.6462 30.0633 19.2373 30.0388 19.6282 29.8132C19.8291 29.6972 19.9372 29.5506 19.9495 29.4089L19.9514 29.4088V20.5808Z" fill="url(#paint0_linear_430_877)"/>
<path d="M28.8325 15.489L26.9604 15.6183V24.4594L26.9609 24.4593C26.9665 24.5782 27.0415 24.691 27.189 24.7761C27.5274 24.9715 28.1185 24.947 28.5093 24.7214C28.7103 24.6053 28.8184 24.4587 28.8306 24.3171L28.8326 24.3169V15.489H28.8325Z" fill="url(#paint1_linear_430_877)"/>
<path d="M11.3138 1.0035L11.3146 1.00239L9.79293 0.128172L9.79211 0.129344C9.56547 -0.021301 9.26125 -0.0531174 8.99201 0.102332L1.05379 4.66028C0.487481 4.98723 0.138672 5.59139 0.138672 6.2453V18.957C0.138672 19.2532 0.301504 19.4927 0.527676 19.6193L0.527441 19.6196L2.11264 20.5304L11.3141 1.00362C11.314 1.00356 11.314 1.00356 11.3138 1.0035Z" fill="url(#paint2_linear_430_877)"/>
<path d="M1.73999 19.8777V7.166C1.73999 6.51215 2.0888 5.90793 2.65511 5.58098L10.5933 1.02303C11.0996 0.730763 11.7325 1.0961 11.7325 1.68068V14.3924C11.7325 15.0462 11.3836 15.6504 10.8173 15.9774L2.87911 20.5354C2.37286 20.8277 1.73999 20.4623 1.73999 19.8777Z" fill="url(#paint3_linear_430_877)"/>
<path d="M28.6601 18.5671L12.0729 8.9905C11.7425 8.79972 11.3355 8.79972 11.0051 8.9905L1.91261 14.2148C1.79753 14.2812 1.73999 14.3975 1.73999 14.5138V18.465C1.73999 18.5812 1.79753 18.6976 1.91261 18.764L18.4999 28.3406C18.8302 28.5313 19.2373 28.5313 19.5677 28.3406L28.6601 23.1163C28.7769 23.049 28.8342 22.9302 28.8325 22.8122H28.8327V18.8706H28.8325C28.8339 18.7529 28.7767 18.6344 28.6601 18.5671Z" fill="url(#paint4_linear_430_877)"/>
<path d="M18.4998 24.3912L1.91261 14.8146C1.68245 14.6817 1.68245 14.3495 1.91261 14.2166L11.0051 8.99229C11.3354 8.80156 11.7425 8.80156 12.0728 8.99229L28.6601 18.5689C28.8902 18.7018 28.8902 19.034 28.6601 19.1669L19.5677 24.3912C19.2373 24.582 18.8302 24.582 18.4998 24.3912Z" fill="#D7D1EB"/>
<path d="M28.8325 14.9195L1.73999 10.5627V14.514C1.73999 14.6302 1.79753 14.7465 1.91261 14.813L18.4999 24.3895C18.8302 24.5802 19.2373 24.5802 19.5677 24.3895L28.6601 19.1652C28.7769 19.0979 28.8342 18.9791 28.8325 18.8611H28.8327V14.9195H28.8325Z" fill="url(#paint5_linear_430_877)"/>
<path d="M18.4998 20.4381L1.91261 10.8614C1.68245 10.7286 1.68245 10.3963 1.91261 10.2634L11.0051 5.03916C11.3354 4.84844 11.7425 4.84844 12.0728 5.03916L28.6601 14.6158C28.8902 14.7487 28.8902 15.0809 28.6601 15.2138L19.5676 20.4381C19.2373 20.6288 18.8302 20.6288 18.4998 20.4381Z" fill="#D7D1EB"/>
<path d="M13.1197 7.08561C13.0693 7.04196 13.0112 7.00838 12.9482 6.98659L9.66527 5.09114C9.50877 4.95245 9.27193 4.90968 9.06551 5.02885L4.52156 7.65227C4.06225 7.91746 3.7793 8.40748 3.7793 8.93787C3.7793 9.14465 3.89648 9.31018 4.05697 9.39385L7.4625 11.3601C7.61672 11.4654 7.82578 11.4886 8.01047 11.382L12.5544 8.75858C13.0137 8.49338 13.2967 8.0033 13.2967 7.47297C13.2967 7.31272 13.226 7.1776 13.1197 7.08561Z" fill="url(#paint6_linear_430_877)"/>
<path d="M7.9803 9.65019L12.5242 7.02677C12.8675 6.82861 13.2966 7.07634 13.2966 7.47273C13.2966 8.00312 13.0137 8.4932 12.5544 8.75833L8.01042 11.3818C7.66712 11.5799 7.23804 11.3322 7.23804 10.9358C7.23804 10.4055 7.52099 9.91538 7.9803 9.65019Z" fill="url(#paint7_linear_430_877)"/>
<path d="M5.95825 15.07L18.9182 27.0315L29.8608 17.1285C29.8608 15.2664 28.8674 13.5457 27.2547 12.6146L17.8336 7.17538C16.8946 6.63327 15.7377 6.63327 14.7987 7.17538L8.56023 10.7519C7.00438 11.6502 6.02517 13.2837 5.95825 15.07Z" fill="#E9E5F6"/>
<path d="M15.7741 17.9258L7.80408 13.3244C7.23965 12.9985 6.5783 13.1761 6.21924 13.6267L8.58689 21.0654L8.58572 21.0659L18.9183 27.0314V23.3718C18.9183 21.1251 17.7197 19.0491 15.7741 17.9258Z" fill="url(#paint8_linear_430_877)"/>
<path d="M22.2254 17.9739L26.94 15.6813C28.2623 14.9744 29.861 15.9325 29.861 17.432V20.7395L18.9185 27.032V23.4917C18.9185 21.1832 20.1896 19.0623 22.2254 17.9739Z" fill="url(#paint9_linear_430_877)"/>
<path d="M17.8338 7.17579C16.8948 6.63362 15.7379 6.63362 14.7989 7.17579L8.56041 10.7524C7.43752 11.4006 6.61533 12.432 6.21924 13.6272L9.28475 14.1797C9.73469 13.4001 10.3864 12.7368 11.193 12.2711L17.4314 8.69454C18.3619 8.15735 19.5061 8.15325 20.4405 8.68071L17.8338 7.17579Z" fill="#F2EDFF"/>
<path d="M8.58691 21.0654V16.7845C8.58691 15.8538 8.83511 14.9584 9.28476 14.1793L7.8041 13.3244C7.23966 12.9985 6.57831 13.1761 6.21925 13.6267C6.19851 13.6893 5.95435 14.4066 5.95435 15.2657V19.5466L8.58691 21.0654Z" fill="#E9E5F6"/>
</g>
<defs>
<linearGradient id="paint0_linear_430_877" x1="18.1802" y1="25.2903" x2="19.9268" y2="25.2903" gradientUnits="userSpaceOnUse">
<stop stop-color="#8B451C"/>
<stop offset="1" stop-color="#BF942A"/>
</linearGradient>
<linearGradient id="paint1_linear_430_877" x1="26.9604" y1="20.1986" x2="28.8325" y2="20.1986" gradientUnits="userSpaceOnUse">
<stop stop-color="#8B451C"/>
<stop offset="1" stop-color="#BF942A"/>
</linearGradient>
<linearGradient id="paint2_linear_430_877" x1="3.77359" y1="8.55624" x2="4.59309" y2="7.13692" gradientUnits="userSpaceOnUse">
<stop stop-color="#252336"/>
<stop offset="1" stop-color="#594A8E"/>
</linearGradient>
<linearGradient id="paint3_linear_430_877" x1="6.73622" y1="14.6956" x2="6.73622" y2="6.04779" gradientUnits="userSpaceOnUse">
<stop stop-color="#594A8E"/>
<stop offset="1" stop-color="#7662BD"/>
</linearGradient>
<linearGradient id="paint4_linear_430_877" x1="18.1804" y1="18.6656" x2="19.927" y2="18.6656" gradientUnits="userSpaceOnUse">
<stop stop-color="#8B451C"/>
<stop offset="1" stop-color="#BF942A"/>
</linearGradient>
<linearGradient id="paint5_linear_430_877" x1="15.6595" y1="17.5476" x2="17.2755" y2="17.5476" gradientUnits="userSpaceOnUse">
<stop stop-color="#C5BAEB"/>
<stop offset="1" stop-color="#E9E5F6"/>
</linearGradient>
<linearGradient id="paint6_linear_430_877" x1="6.59432" y1="11.572" x2="7.76496" y2="9.54432" gradientUnits="userSpaceOnUse">
<stop stop-color="#C5BAEB"/>
<stop offset="1" stop-color="#E9E5F6"/>
</linearGradient>
<linearGradient id="paint7_linear_430_877" x1="7.23804" y1="9.20429" x2="13.2966" y2="9.20429" gradientUnits="userSpaceOnUse">
<stop stop-color="#C5BAEB"/>
<stop offset="1" stop-color="#E9E5F6"/>
</linearGradient>
<linearGradient id="paint8_linear_430_877" x1="8.25396" y1="17.2292" x2="18.4065" y2="23.0907" gradientUnits="userSpaceOnUse">
<stop stop-color="#D7D1EB"/>
<stop offset="1" stop-color="#E7E3F3"/>
</linearGradient>
<linearGradient id="paint9_linear_430_877" x1="19.3797" y1="23.202" x2="29.4335" y2="17.3974" gradientUnits="userSpaceOnUse">
<stop stop-color="#D7D1EB"/>
<stop offset="1" stop-color="#E7E3F3"/>
</linearGradient>
<clipPath id="clip0_430_877">
<rect width="30" height="30" fill="white"/>
</clipPath>
</defs>
</svg>
