<svg width="20" height="20" viewBox="0 0 20 20" fill="none" xmlns="http://www.w3.org/2000/svg">
<g clip-path="url(#clip0_430_934)">
<path d="M19.6001 11.7627L8.23731 0.399929C7.98043 0.142159 7.62674 0.000127927 7.27313 8.62261e-08C6.91918 -0.000127755 6.56527 0.141904 6.30857 0.399503L0.399929 6.30814C0.142031 6.56515 0 6.90785 0 7.27275C0 7.63765 0.142031 7.9803 0.399503 8.23688L11.7627 19.6001C12.0197 19.858 12.3624 20 12.7273 20C13.0921 20 13.4348 19.858 13.6914 19.6005L19.6 13.6919C19.8579 13.4349 20 13.0922 20 12.7273C20 12.3624 19.858 12.0197 19.6001 11.7627ZM1.04182 7.59367C0.956165 7.50844 0.909077 7.39437 0.909077 7.27275C0.909077 7.15113 0.956123 7.03705 1.04225 6.95135L6.95178 1.04182C7.03701 0.956166 7.15108 0.909077 7.2727 0.909077C7.39432 0.909077 7.5084 0.956123 7.5941 1.04225L17.5 10.9481L10.9481 17.5L1.04182 7.59367ZM18.9578 13.0486L13.0482 18.9582C12.8778 19.1295 12.5773 19.13 12.4059 18.9578L11.5909 18.1428L18.1428 11.5909L18.9578 12.4059L18.9582 12.4063C19.0438 12.4916 19.0909 12.6056 19.0909 12.7273C19.0909 12.8489 19.0439 12.963 18.9578 13.0486Z" fill="#7B6F72"/>
<path d="M15.5874 14.6786L14.6783 15.5876C14.5008 15.7652 14.5008 16.0529 14.6783 16.2304C14.7671 16.3192 14.8834 16.3636 14.9997 16.3636C15.116 16.3636 15.2323 16.3192 15.3211 16.2304L16.2302 15.3213C16.4078 15.1437 16.4078 14.8561 16.2302 14.6786C16.0526 14.501 15.765 14.501 15.5874 14.6786Z" fill="#7B6F72"/>
<path d="M4.67848 3.76955L3.76941 4.67863C3.59184 4.8562 3.59184 5.14384 3.76941 5.32137C3.85817 5.41017 3.97447 5.45458 4.09076 5.45458C4.20705 5.45458 4.32334 5.41017 4.41215 5.32141L5.32122 4.41234C5.4988 4.23477 5.4988 3.94712 5.32122 3.7696C5.14365 3.59203 4.85601 3.59203 4.67848 3.76955Z" fill="#7B6F72"/>
<path d="M7.27268 2.27277C7.52372 2.27277 7.72723 2.06925 7.72723 1.81821C7.72723 1.56716 7.52372 1.36365 7.27268 1.36365C7.02163 1.36365 6.81812 1.56716 6.81812 1.81821C6.81812 2.06925 7.02163 2.27277 7.27268 2.27277Z" fill="#7B6F72"/>
<path d="M6.2244 17.2292C5.47244 16.8532 4.79642 16.3676 4.21444 15.7852C3.63204 15.2033 3.14642 14.5273 2.77048 13.7753C2.65819 13.5503 2.38474 13.4597 2.16059 13.572C1.93598 13.6843 1.845 13.9573 1.95728 14.1819C2.3772 15.0213 2.9201 15.7768 3.5717 16.428C4.22288 17.0796 4.97838 17.6225 5.81778 18.0424C5.88302 18.0748 5.95227 18.0903 6.02062 18.0903C6.18754 18.0903 6.34777 17.9985 6.42767 17.8391C6.54 17.6145 6.44902 17.3415 6.2244 17.2292Z" fill="#7B6F72"/>
<path d="M5.41228 18.8543C4.48411 18.3904 3.64871 17.7902 2.92914 17.0711C2.21003 16.3516 1.6099 15.5162 1.14601 14.588C1.03326 14.3639 0.759803 14.2724 0.536082 14.3847C0.311465 14.497 0.220485 14.77 0.332772 14.9946C0.840599 16.0102 1.498 16.9251 2.28635 17.7139C3.07513 18.5023 3.99 19.1597 5.00562 19.6675C5.07086 19.6999 5.1401 19.7154 5.20846 19.7154C5.37537 19.7154 5.5356 19.6236 5.6155 19.4642C5.72787 19.2396 5.63689 18.9666 5.41228 18.8543Z" fill="#7B6F72"/>
<path d="M14.5883 1.14564C15.5165 1.60949 16.3519 2.20966 17.0715 2.92876C17.7906 3.64829 18.3907 4.48374 18.8546 5.4119C18.9345 5.57128 19.0947 5.66315 19.2617 5.66315C19.33 5.66315 19.3993 5.6476 19.4645 5.61521C19.6891 5.50293 19.7801 5.2299 19.6678 5.00528C19.16 3.98967 18.5026 3.0748 17.7142 2.28598C16.9254 1.49763 16.0106 0.840225 14.9949 0.332398C14.7703 0.220963 14.4973 0.311091 14.385 0.535708C14.2727 0.760367 14.3638 1.03335 14.5883 1.14564Z" fill="#7B6F72"/>
<path d="M13.7753 2.77081C14.5273 3.14679 15.2033 3.63242 15.7853 4.21478C16.3677 4.79671 16.8533 5.47277 17.2292 6.22473C17.3091 6.38411 17.4694 6.47598 17.6363 6.47598C17.7046 6.47598 17.7739 6.46043 17.8391 6.42804C18.0637 6.31575 18.1547 6.04273 18.0424 5.81811C17.6225 4.97871 17.0796 4.22321 16.428 3.57204C15.7768 2.92039 15.0213 2.37753 14.1819 1.95762C13.9573 1.84665 13.6844 1.93631 13.572 2.16093C13.4597 2.3855 13.5508 2.65849 13.7753 2.77081Z" fill="#7B6F72"/>
</g>
<defs>
<clipPath id="clip0_430_934">
<rect width="20" height="20" fill="white"/>
</clipPath>
</defs>
</svg>
