<svg width="14" height="14" viewBox="0 0 14 14" fill="none" xmlns="http://www.w3.org/2000/svg">
<path d="M7.00008 7.58329C7.32225 7.58329 7.58341 7.32213 7.58341 6.99996C7.58341 6.67779 7.32225 6.41663 7.00008 6.41663C6.67792 6.41663 6.41675 6.67779 6.41675 6.99996C6.41675 7.32213 6.67792 7.58329 7.00008 7.58329Z" fill="#ADA4A5" stroke="#ADA4A5" stroke-width="2" stroke-linecap="round" stroke-linejoin="round"/>
<path d="M7.00008 3.50004C7.32225 3.50004 7.58341 3.23887 7.58341 2.91671C7.58341 2.59454 7.32225 2.33337 7.00008 2.33337C6.67792 2.33337 6.41675 2.59454 6.41675 2.91671C6.41675 3.23887 6.67792 3.50004 7.00008 3.50004Z" fill="#ADA4A5" stroke="#ADA4A5" stroke-width="2" stroke-linecap="round" stroke-linejoin="round"/>
<path d="M7.00008 11.6667C7.32225 11.6667 7.58341 11.4055 7.58341 11.0833C7.58341 10.7612 7.32225 10.5 7.00008 10.5C6.67792 10.5 6.41675 10.7612 6.41675 11.0833C6.41675 11.4055 6.67792 11.6667 7.00008 11.6667Z" fill="#ADA4A5" stroke="#ADA4A5" stroke-width="2" stroke-linecap="round" stroke-linejoin="round"/>
</svg>
