<svg width="30" height="30" viewBox="0 0 30 30" fill="none" xmlns="http://www.w3.org/2000/svg">
<g clip-path="url(#clip0_430_822)">
<path d="M24.3238 26.9589L22.5988 23.8379L20.3459 24.8884L21.9062 29.1054C22.2657 29.8764 23.1875 30.2173 23.9649 29.8547C24.7402 29.4932 25.0757 28.5715 24.7142 27.7961L24.3238 26.9589Z" fill="#BFBFBF"/>
<path d="M7.57762 23.9205L5.67526 26.9589L5.28491 27.796C4.92333 28.5714 5.25884 29.4931 6.03421 29.8547C6.80073 30.2123 7.72809 29.8876 8.09284 29.1054L9.51039 24.8218L7.57762 23.9205Z" fill="#BFBFBF"/>
<path d="M5.67529 26.9587C6.3793 27.7802 7.18988 28.5075 8.08578 29.1194C8.08806 29.1146 8.09058 29.11 8.09287 29.1052L9.98673 25.0437L7.17881 23.7344L5.67529 26.9587Z" fill="#ACACAC"/>
<path d="M24.3241 26.9587L22.8206 23.7344L20.0127 25.0437L21.9066 29.1052C21.9088 29.1101 21.9114 29.1146 21.9137 29.1194C22.8096 28.5076 23.6201 27.7803 24.3241 26.9587Z" fill="#ACACAC"/>
<path d="M6.30748 7.53021L5.78306 7.20203L4.77197 8.21306L5.09793 8.73993L7.92132 11.5633L9.13093 10.3537L6.30748 7.53021Z" fill="#ACACAC"/>
<path d="M2.97681 6.61987L4.18628 5.41041L6.30587 7.53L5.0964 8.73946L2.97681 6.61987Z" fill="#9C9C9C"/>
<path d="M2.00302 4.55541C0.81456 5.80815 0.833662 7.78679 2.06202 9.01515L2.58403 9.53716C2.72718 9.68031 2.95927 9.68031 3.10247 9.53716L6.98478 5.65481C7.12792 5.51166 7.12792 5.27951 6.98478 5.13637L6.46276 4.61436C5.23435 3.386 3.25575 3.36696 2.00302 4.55541Z" fill="#EB5569"/>
<path d="M25.3625 8.0035L24.3787 7.01965L23.6063 7.61608L20.8684 10.3539L22.078 11.5635L24.8159 8.82568L25.3625 8.0035Z" fill="#ACACAC"/>
<path d="M16.2068 4.11191V1.51697H13.7923V4.11191H13.7166V10.2537H16.2826V4.11191H16.2068Z" fill="#ACACAC"/>
<path d="M13.7166 1.85938H16.2826V4.11207H13.7166V1.85938Z" fill="#9C9C9C"/>
<path d="M18.647 1.54266C18.647 0.690703 17.9563 0 17.1043 0H12.7238C11.8718 0 11.1812 0.690703 11.1812 1.54266C11.1812 2.39467 11.8719 3.08531 12.7238 3.08531H17.1043C17.9563 3.08531 18.647 2.39467 18.647 1.54266Z" fill="#EB5569"/>
<path d="M23.6028 7.6178L25.8079 5.41266L27.0174 6.62213L24.8122 8.82726L23.6028 7.6178Z" fill="#9C9C9C"/>
<path d="M17.2755 0H15.5645C16.4165 0 17.1071 0.690703 17.1071 1.54266C17.1071 2.39467 16.4164 3.08531 15.5645 3.08531H17.2755C18.1275 3.08531 18.8182 2.39467 18.8182 1.54266C18.8182 0.690703 18.1275 0 17.2755 0Z" fill="#E53950"/>
<path d="M27.8755 4.43542C26.6228 3.24696 24.6441 3.26601 23.4157 4.49436L22.8937 5.01637C22.7506 5.15952 22.7506 5.39167 22.8937 5.53481L26.7761 9.41717C26.9192 9.56031 27.1513 9.56031 27.2945 9.41717L27.8165 8.89516C29.0449 7.6668 29.0639 5.68815 27.8755 4.43542Z" fill="#EB5569"/>
<path d="M27.9376 4.4944C27.7279 4.28476 27.4961 4.1112 27.2501 3.97192C27.9403 5.19132 27.7666 6.7672 26.7276 7.80624L26.2056 8.32825C26.0624 8.4714 25.8305 8.4714 25.6873 8.32837L26.897 9.53816C27.0402 9.6813 27.2723 9.6813 27.4155 9.53816L27.9375 9.01614C29.1862 7.76751 29.1862 5.74304 27.9376 4.4944Z" fill="#E53950"/>
<path d="M6.58371 4.49324C5.33508 3.24461 3.31061 3.24461 2.06197 4.49324C1.85238 4.70283 1.67877 4.93468 1.53955 5.18072C2.75895 4.49054 4.33482 4.66415 5.37381 5.70314L5.89582 6.22515C6.03896 6.36829 6.03896 6.60044 5.89582 6.74358L3.1023 9.5371C3.10236 9.53704 3.10236 9.53704 3.10242 9.53704L7.10572 5.53368C7.24887 5.39054 7.24887 5.15839 7.10572 5.01525L6.58371 4.49324Z" fill="#E53950"/>
<path d="M14.9998 29.5401C21.7791 29.5401 27.2749 24.0443 27.2749 17.2649C27.2749 10.4855 21.7791 4.98975 14.9998 4.98975C8.22038 4.98975 2.72461 10.4855 2.72461 17.2649C2.72461 24.0443 8.22038 29.5401 14.9998 29.5401Z" fill="#EB5569"/>
<path d="M14.9996 4.98975C14.7162 4.98975 14.4353 5.00023 14.1567 5.0191C20.5429 5.45223 25.5891 10.7688 25.5891 17.2649C25.5891 23.761 20.5429 29.0775 14.1567 29.5107C14.4353 29.5296 14.7162 29.5401 14.9996 29.5401C21.7789 29.5401 27.2747 24.0443 27.2747 17.2649C27.2747 10.4855 21.7789 4.98975 14.9996 4.98975Z" fill="#E53950"/>
<path d="M14.9996 27.4021C20.598 27.4021 25.1363 22.8637 25.1363 17.2653C25.1363 11.6669 20.598 7.12854 14.9996 7.12854C9.40118 7.12854 4.86279 11.6669 4.86279 17.2653C4.86279 22.8637 9.40118 27.4021 14.9996 27.4021Z" fill="#E8EDF2"/>
<path d="M14.9994 7.12854C14.6821 7.12854 14.3683 7.14395 14.0583 7.17266C19.2082 7.64903 23.2541 11.9932 23.2541 17.2654C23.2541 22.5375 19.2082 26.8817 14.0583 27.3581C14.3683 27.3867 14.6821 27.4022 14.9994 27.4022C20.5889 27.4022 25.1362 22.8548 25.1362 17.2654C25.1362 11.6759 20.5889 7.12854 14.9994 7.12854Z" fill="#D9E7EC"/>
<path d="M15.0455 16.9843C14.7954 16.9843 14.5928 16.7816 14.5928 16.5316V11.7814C14.5928 11.5314 14.7954 11.3287 15.0455 11.3287C15.2955 11.3287 15.4982 11.5314 15.4982 11.7814V16.5316C15.4982 16.7816 15.2955 16.9843 15.0455 16.9843Z" fill="#838383"/>
<path d="M18.6409 17.7175H15.3875C15.1375 17.7175 14.9348 17.5148 14.9348 17.2648C14.9348 17.0148 15.1375 16.8121 15.3875 16.8121H18.6409C18.8909 16.8121 19.0936 17.0148 19.0936 17.2648C19.0936 17.5148 18.8909 17.7175 18.6409 17.7175Z" fill="#9C9C9C"/>
<path d="M15.0456 18.8835C15.9398 18.8835 16.6646 18.1586 16.6646 17.2644C16.6646 16.3703 15.9398 15.6454 15.0456 15.6454C14.1514 15.6454 13.4265 16.3703 13.4265 17.2644C13.4265 18.1586 14.1514 18.8835 15.0456 18.8835Z" fill="#FBC56D"/>
<path d="M4.8734 17.7175H7.2144C7.46442 17.7175 7.66709 17.5148 7.66709 17.2648C7.66709 17.0148 7.46442 16.8121 7.2144 16.8121H4.8734C4.86678 16.9623 4.86279 17.1131 4.86279 17.2648C4.86279 17.4166 4.86678 17.5674 4.8734 17.7175Z" fill="#ACACAC"/>
<path d="M14.9998 24.5977C14.7498 24.5977 14.5471 24.8003 14.5471 25.0504V27.3913C14.6972 27.398 14.8481 27.402 14.9998 27.402C15.1516 27.402 15.3024 27.398 15.4525 27.3913V25.0504C15.4526 24.8003 15.2498 24.5977 14.9998 24.5977Z" fill="#ACACAC"/>
<path d="M14.9998 7.12854C14.8481 7.12854 14.6972 7.13252 14.5471 7.13915V9.48021C14.5471 9.73023 14.7498 9.9329 14.9998 9.9329C15.2498 9.9329 15.4525 9.73023 15.4525 9.48021V7.13915C15.3024 7.13252 15.1516 7.12854 14.9998 7.12854Z" fill="#ACACAC"/>
<path d="M15.0451 15.6454C14.7686 15.6454 14.5057 15.7191 14.2751 15.8474C14.7763 16.1262 15.1242 16.6633 15.1242 17.2644C15.1242 17.8655 14.7764 18.4026 14.2751 18.6814C14.5057 18.8097 14.7686 18.8834 15.0451 18.8834C15.9227 18.8834 16.6642 18.1419 16.6642 17.2643C16.6642 16.3868 15.9227 15.6454 15.0451 15.6454Z" fill="#E9B665"/>
<path d="M25.1257 16.8121H22.7847C22.5347 16.8121 22.332 17.0149 22.332 17.2648C22.332 17.5149 22.5347 17.7175 22.7847 17.7175H25.1257C25.1323 17.5674 25.1363 17.4166 25.1363 17.2648C25.1363 17.1131 25.1323 16.9623 25.1257 16.8121Z" fill="#ACACAC"/>
<path d="M25.1335 17.0352C25.1317 16.9607 25.1291 16.8864 25.1258 16.8122V16.8121H23.2439C23.2505 16.9623 23.2543 17.1131 23.2543 17.2649C23.2543 17.4166 23.2505 17.5675 23.2439 17.7176H25.1258C25.1291 17.6434 25.1317 17.569 25.1335 17.4945C25.1352 17.4185 25.1364 17.3422 25.1364 17.2658C25.1364 17.2655 25.1364 17.2652 25.1364 17.2649C25.1364 17.1881 25.1353 17.1116 25.1335 17.0352Z" fill="#9C9C9C"/>
<path d="M14.9994 27.8544C9.1604 27.8544 4.40991 23.1039 4.40991 17.2649C4.40991 11.4258 9.16034 6.67542 14.9994 6.67542C20.8385 6.67542 25.589 11.4258 25.589 17.2649C25.589 23.104 20.8385 27.8544 14.9994 27.8544ZM14.9994 7.58081C9.65962 7.58081 5.31536 11.9251 5.31536 17.2649C5.31536 22.6047 9.65962 26.9489 14.9994 26.9489C20.3393 26.9489 24.6835 22.6047 24.6835 17.2649C24.6835 11.9251 20.3393 7.58081 14.9994 7.58081Z" fill="#F58A97"/>
</g>
<defs>
<clipPath id="clip0_430_822">
<rect width="30" height="30" fill="white"/>
</clipPath>
</defs>
</svg>
